<?xml version="1.0" encoding="utf-8"?>
<!-- Generator: Adobe Illustrator 23.0.3, SVG Export Plug-In . SVG Version: 6.00 Build 0)  -->
<svg version="1.1" id="Capa_1" xmlns="http://www.w3.org/2000/svg" xmlns:xlink="http://www.w3.org/1999/xlink" x="0px" y="0px"
	 viewBox="0 0 430.1 430.1" style="enable-background:new 0 0 430.1 430.1;" xml:space="preserve">
<style type="text/css">
	.st0{fill:#BBBDBF;}
</style>
<g>
	<path class="st0" d="M263.2,199.4c-5.2,0-9.1,1.5-12,4.4c-2.8,2.9-4.6,6.9-5.3,11.9h34.6l0,0c-0.4-5.3-2.2-9.4-5.4-12.1
		C271.9,200.8,268,199.4,263.2,199.4z"/>
	<path class="st0" d="M187.8,197.4c2.9-1.8,4.3-4.9,4.3-9.4c0-5-1.9-8.3-5.8-9.9c-3.3-1.1-7.5-1.7-12.6-1.7h-19.9v23.6h22.7
		C181.2,200.1,184.9,199.2,187.8,197.4z"/>
	<path class="st0" d="M187.5,219.7c-2.5-1.2-6.1-1.8-10.7-1.8h-23v28.6h22.6c4.7,0,8.3-0.6,10.8-1.9c4.7-2.3,7-6.8,7-13.4
		C194.4,225.6,192.1,221.7,187.5,219.7z"/>
	<path class="st0" d="M301.7,99.6H125.2c-13,0-23.5,10.5-23.5,23.5v176.5c0,13,10.5,23.5,23.5,23.5h176.5c13,0,23.5-10.5,23.5-23.5
		V123.2C325.2,110.2,314.7,99.6,301.7,99.6z M241.5,162.3h43.1V173h0h-43.1V162.3z M212.2,249.8c-2,3.3-4.6,6.2-7.6,8.4
		c-3.4,2.6-7.4,4.4-12.1,5.4c-4.7,1-9.7,1.4-15.1,1.4h-48.3V157.9h51.7c13,0.2,22.3,4,27.7,11.4c3.3,4.6,4.9,10,4.9,16.4
		c0,6.5-1.6,11.8-5,15.8c-1.8,2.2-4.6,4.3-8.2,6.1c5.5,2,9.6,5.1,12.4,9.5c2.8,4.3,4.2,9.5,4.2,15.7
		C216.9,239,215.4,244.7,212.2,249.8z M301.3,228.9h-55.9c0.3,7.7,3,13.1,8,16.2c3,1.9,6.7,2.9,11.1,2.9c4.6,0,8.3-1.2,11.1-3.5
		c1.6-1.3,2.9-3,4.1-5.3h20.5c-0.5,4.6-3,9.2-7.4,13.9c-6.9,7.5-16.5,11.2-28.9,11.2c-10.2,0-19.2-3.2-27-9.4
		c-7.8-6.3-11.7-16.5-11.7-30.7c0-13.3,3.5-23.5,10.6-30.6c7.1-7.1,16.2-10.6,27.5-10.6c6.7,0,12.7,1.2,18,3.6
		c5.3,2.4,9.8,6.2,13.2,11.4c3.1,4.6,5.2,9.9,6.1,15.9C301.1,217.2,301.4,222.3,301.3,228.9z"/>
</g>
</svg>
