<?xml version="1.0" encoding="utf-8"?>
<!-- Generator: Adobe Illustrator 23.0.3, SVG Export Plug-In . SVG Version: 6.00 Build 0)  -->
<svg version="1.1" id="Capa_1" xmlns="http://www.w3.org/2000/svg" xmlns:xlink="http://www.w3.org/1999/xlink" x="0px" y="0px"
	 viewBox="0 0 430.1 430.1" style="enable-background:new 0 0 430.1 430.1;" xml:space="preserve">
<style type="text/css">
	.st0{fill:#BBBDBF;}
</style>
<g>
	<path class="st0" d="M-235.2,236c3.1,1,6.5,1,9.6,0l132.3-90c1.9-1.3,3-3.4,3-5.6V131c0-13-10.5-23.5-23.5-23.5H-347
		c-13,0-23.5,10.5-23.5,23.5v9.4c0,2.2,1.1,4.3,2.9,5.5L-235.2,236z"/>
	<path class="st0" d="M-217.3,254c-4.2,1.7-8.7,2.6-13.1,2.6s-8.9-0.9-13.1-2.6l-1.8-1l-119.5-81.3c-2.4-1.6-5.7,0.1-5.7,3v132.7
		c0,13,10.5,23.5,23.5,23.5h233.1c13,0,23.5-10.5,23.5-23.5V174.8c0-3-3.3-4.7-5.8-3.1L-217.3,254z"/>
</g>
</svg>
