<?xml version="1.0" encoding="utf-8"?>
<!-- Generator: Adobe Illustrator 23.0.3, SVG Export Plug-In . SVG Version: 6.00 Build 0)  -->
<svg version="1.1" id="Capa_1" xmlns="http://www.w3.org/2000/svg" xmlns:xlink="http://www.w3.org/1999/xlink" x="0px" y="0px"
	 viewBox="0 0 430.1 430.1" style="enable-background:new 0 0 430.1 430.1;" xml:space="preserve">
<style type="text/css">
	.st0{fill:#BBBDBF;}
</style>
<path class="st0" d="M777.1,99.6H600.5c-13,0-23.5,10.5-23.5,23.5v176.5c0,13,10.5,23.5,23.5,23.5h176.5c13,0,23.5-10.5,23.5-23.5
	V123.2C800.6,110.2,790.1,99.6,777.1,99.6z M645.6,296.2h-36.2V193.7h36.2V296.2z M627.7,180.4c-11.1,0-20.2-8.1-20.2-18.1
	c0-10,9-18.1,20.2-18.1c11.2,0,20.2,8.1,20.2,18.1C647.9,172.3,638.9,180.4,627.7,180.4z M770.2,296.2h-35.8v-52.6
	c0,0,3.2-25.1-18.3-25.1c-19.4,0-18.7,25.1-18.7,25.1c0,9.7,0,52.6,0,52.6H662V193.7h35v14c0,0,9.9-16.8,33.1-16.8
	c22.3,0,40,10.1,40,53.9C770.2,287.4,770.2,296.2,770.2,296.2z"/>
</svg>
