<?xml version="1.0" encoding="utf-8"?>
<!-- Generator: Adobe Illustrator 23.0.3, SVG Export Plug-In . SVG Version: 6.00 Build 0)  -->
<svg version="1.1" id="Layer_1" xmlns="http://www.w3.org/2000/svg" xmlns:xlink="http://www.w3.org/1999/xlink" x="0px" y="0px"
	 viewBox="0 0 209.52 90.72" style="enable-background:new 0 0 209.52 90.72;" xml:space="preserve">
<style type="text/css">
	.st0{fill:#55C3C0;}
	.st1{fill:#B94298;}
	.st2{fill:#6B437C;}
	.st3{fill:#35393C;}
	.st4{fill:#54C3C0;}
	.st5{fill:#B94198;}
</style>
<path class="st0" d="M24.18,67.47c-2.8,0-5.43-0.53-7.81-1.49l2.62-5.22h0l-0.52,1.02c2.38,0.95,5.02,1.47,7.82,1.47
	c3.29,0,6.36-0.71,9.04-1.99L37.06,63C33.65,65.8,29.17,67.47,24.18,67.47"/>
<path class="st0" d="M33.73,39.59c-0.87-0.88-1.86-1.64-2.95-2.25l2.09-4.16c1.51,0.86,2.84,2,3.91,3.36L33.73,39.59"/>
<path class="st1" d="M32.71,31.78L32.71,31.78L32.71,31.78z"/>
<path class="st1" d="M13.51,40.89c1.61-5.51,6.78-9.43,12.82-9.43c1.83,0,3.57,0.38,5.15,1.05l-2.09,4.16
	c-1.59-0.66-3.32-1.05-5.16-1.05C19.87,35.62,15.95,37.67,13.51,40.89 M14.97,65.36c-6.25-3.1-10.41-9.31-10.41-16.67
	c0-3.88,1.14-7.41,3.13-10.34c-0.67,1.92-1.03,4-1.03,6.18c0,7.37,4.16,13.57,10.42,16.66L14.97,65.36"/>
<path class="st0" d="M7.68,38.35c2.6-7.42,9.81-12.49,18.6-12.49c2.8,0,5.44,0.52,7.82,1.47l-2.61,5.19h0L32,31.49
	c-2.38-0.95-5.02-1.47-7.82-1.47C17.16,30.01,11.14,33.26,7.68,38.35 M17.07,61.2C17.07,61.2,17.07,61.19,17.07,61.2l0.55-1.09
	c-3.98-2.26-6.71-6.49-6.71-11.42c0-2.95,0.97-5.64,2.61-7.8C13.18,42.04,13,43.26,13,44.53c0,4.92,2.73,9.15,6.71,11.42L17.07,61.2
	"/>
<path class="st2" d="M17.06,61.19c-6.25-3.1-10.42-9.3-10.42-16.66c0-2.19,0.36-4.26,1.03-6.18c3.46-5.09,9.48-8.34,16.5-8.34
	c2.8,0,5.44,0.52,7.82,1.47l-0.52,1.03c-1.59-0.66-3.32-1.05-5.15-1.05c-6.04,0-11.21,3.91-12.82,9.43
	c-1.64,2.16-2.61,4.85-2.61,7.8c0,4.92,2.73,9.15,6.71,11.42L17.06,61.19"/>
<path class="st1" d="M24.24,61.86c-1.85,0-3.62-0.4-5.24-1.09l2.09-4.16c1.59,0.66,3.32,1.05,5.16,1.05
	c7.3,0,13.33-5.71,13.33-13.07c0-3.05-1.05-5.84-2.8-8.06l1.25-1.25c-1.35-1.27-2.92-2.33-4.62-3.17l-0.53,1.06l0,0l2.64-5.25
	c6.26,3.1,10.42,9.3,10.42,16.67c0,7.47-4.23,13.67-10.59,16.69l-2.56-2.56C30.48,60.68,27.5,61.86,24.24,61.86"/>
<path class="st2" d="M26.3,63.27c-2.8,0-5.44-0.52-7.82-1.47L19,60.77c1.62,0.69,3.39,1.09,5.24,1.09c3.26,0,6.25-1.18,8.55-3.14
	l2.56,2.56C32.65,62.56,29.59,63.27,26.3,63.27"/>
<path class="st2" d="M36.78,36.53c-1.07-1.36-2.4-2.5-3.91-3.36l0.53-1.06c1.71,0.84,3.27,1.9,4.62,3.17L36.78,36.53"/>
<path class="st3" d="M87.62,44.78l-3.65-5.27h-0.22h-3.81v5.27h-4.38V25.85h8.19c1.68,0,3.13,0.28,4.37,0.84s2.18,1.35,2.85,2.38
	c0.67,1.03,1,2.24,1,3.65c0,1.41-0.34,2.62-1.01,3.64c-0.67,1.02-1.64,1.8-2.88,2.34l4.25,6.08L87.62,44.78L87.62,44.78z
	 M86.51,30.28c-0.69-0.57-1.68-0.85-3-0.85h-3.57v6.6h3.57c1.32,0,2.32-0.29,3-0.87c0.69-0.58,1.03-1.39,1.03-2.43
	C87.54,31.66,87.19,30.84,86.51,30.28"/>
<polygon class="st3" points="112.79,25.86 112.79,44.78 109.19,44.78 99.76,33.29 99.76,44.78 95.43,44.78 95.43,25.86 99.05,25.86 
	108.46,37.35 108.46,25.86 "/>
<polygon class="st3" points="131.93,41.27 131.93,44.78 117.28,44.78 117.28,25.85 131.58,25.85 131.58,29.37 121.63,29.37 
	121.63,33.48 130.42,33.48 130.42,36.89 121.63,36.89 121.63,41.27 "/>
<polygon class="st3" points="135.42,25.86 139.8,25.86 139.8,41.21 149.29,41.21 149.29,44.78 135.42,44.78 "/>
<polygon class="st3" points="151.75,25.86 156.13,25.86 156.13,41.21 165.62,41.21 165.62,44.78 151.75,44.78 "/>
<path class="st3" d="M180.92,40.73h-8.79l-1.68,4.05h-4.49l8.44-18.93h4.33l8.46,18.93h-4.6L180.92,40.73z M179.54,37.4l-3-7.25
	l-3,7.25H179.54z"/>
<rect x="63.53" y="48.22" class="st3" width="4.38" height="18.93"/>
<path class="st3" d="M76.22,66.22c-1.56-0.84-2.78-2-3.68-3.49c-0.89-1.49-1.34-3.17-1.34-5.04c0-1.87,0.45-3.55,1.34-5.04
	c0.89-1.49,2.12-2.65,3.68-3.49c1.56-0.84,3.31-1.26,5.26-1.26c1.64,0,3.12,0.29,4.45,0.87c1.32,0.58,2.44,1.41,3.34,2.49l-2.81,2.6
	c-1.28-1.48-2.87-2.22-4.76-2.22c-1.17,0-2.22,0.26-3.14,0.77c-0.92,0.51-1.64,1.23-2.15,2.15c-0.51,0.92-0.77,1.96-0.77,3.14
	s0.26,2.22,0.77,3.14c0.51,0.92,1.23,1.64,2.15,2.15c0.92,0.51,1.96,0.77,3.14,0.77c1.89,0,3.48-0.75,4.76-2.24l2.81,2.6
	c-0.9,1.1-2.02,1.94-3.35,2.51c-1.33,0.58-2.82,0.87-4.46,0.87C79.53,67.47,77.78,67.05,76.22,66.22"/>
<path class="st3" d="M95.64,66.22c-1.56-0.84-2.78-2-3.68-3.49c-0.89-1.49-1.34-3.17-1.34-5.04c0-1.87,0.45-3.55,1.34-5.04
	c0.89-1.49,2.12-2.65,3.68-3.49c1.56-0.84,3.31-1.26,5.26-1.26c1.64,0,3.12,0.29,4.45,0.87s2.44,1.41,3.34,2.49l-2.81,2.6
	c-1.28-1.48-2.87-2.22-4.76-2.22c-1.17,0-2.22,0.26-3.14,0.77s-1.64,1.23-2.15,2.15c-0.51,0.92-0.77,1.96-0.77,3.14
	s0.26,2.22,0.77,3.14c0.51,0.92,1.23,1.64,2.15,2.15c0.92,0.51,1.96,0.77,3.14,0.77c1.89,0,3.48-0.75,4.76-2.24l2.81,2.6
	c-0.9,1.1-2.02,1.94-3.35,2.51c-1.33,0.58-2.82,0.87-4.46,0.87C98.94,67.47,97.2,67.05,95.64,66.22"/>
<polygon class="st3" points="128.99,48.22 128.99,67.15 124.61,67.15 124.61,59.39 116.01,59.39 116.01,67.15 111.63,67.15 
	111.63,48.22 116.01,48.22 116.01,55.69 124.61,55.69 124.61,48.22 "/>
<polygon class="st3" points="148.13,63.63 148.13,67.15 133.47,67.15 133.47,48.22 147.78,48.22 147.78,51.74 137.83,51.74 
	137.83,55.85 146.61,55.85 146.61,59.25 137.83,59.25 137.83,63.63 "/>
<polygon class="st3" points="155.53,51.79 149.48,51.79 149.48,48.22 165.97,48.22 165.97,51.79 159.92,51.79 159.92,67.15 
	155.53,67.15 "/>
<polygon class="st3" points="172.94,51.79 166.88,51.79 166.88,48.22 183.37,48.22 183.37,51.79 177.32,51.79 177.32,67.15 
	172.94,67.15 "/>
<rect x="185.3" y="48.22" class="st3" width="4.38" height="18.93"/>
<path class="st4" d="M53.02,63.74c-1.02,0-1.93-0.21-2.76-0.59l-1.74,3.51c1.31,0.53,2.72,0.82,4.26,0.82
	c1.64,0,3.13-0.29,4.46-0.87c1.33-0.58,2.45-1.42,3.35-2.51l-2.81-2.6C56.49,62.99,54.91,63.74,53.02,63.74"/>
<path class="st4" d="M57.37,48.83l-1.68,3.39c0.77,0.37,1.46,0.91,2.09,1.63l2.81-2.6C59.71,50.2,58.64,49.4,57.37,48.83"/>
<rect x="13.23" y="44.86" transform="matrix(0.4451 -0.8955 0.8955 0.4451 -8.7024 76.5223)" class="st3" width="88.33" height="0.85"/>
<path class="st5" d="M70.91,30.3c-0.73-1.2-1.69-2.19-2.85-2.97l-1.84,3.71c0.32,0.34,0.61,0.72,0.84,1.14
	c0.51,0.92,0.77,1.96,0.77,3.14s-0.26,2.22-0.77,3.14c-0.51,0.92-1.22,1.64-2.12,2.15c-0.9,0.51-1.91,0.77-3.03,0.77
	c-0.28,0-0.55-0.02-0.81-0.05l-1.74,3.5c0.81,0.17,1.66,0.27,2.55,0.27c1.96,0,3.73-0.42,5.3-1.27s2.8-2.02,3.71-3.5
	c0.9-1.48,1.35-3.15,1.35-5.01C72.26,33.46,71.81,31.79,70.91,30.3"/>
</svg>
