<?xml version="1.0" encoding="utf-8"?>
<!-- Generator: Adobe Illustrator 23.0.3, SVG Export Plug-In . SVG Version: 6.00 Build 0)  -->
<svg version="1.1" id="Layer_1" xmlns="http://www.w3.org/2000/svg" xmlns:xlink="http://www.w3.org/1999/xlink" x="0px" y="0px"
	 viewBox="0 0 72.4 72.8" style="enable-background:new 0 0 72.4 72.8;" xml:space="preserve">
<style type="text/css">
	.st0{fill:#55C3C0;}
	.st1{fill:#B94298;}
	.st2{fill:#6B437C;}
</style>
<path class="st0" d="M34.3,72.8c-4.9,0-9.5-0.9-13.7-2.6l4.6-9.1l0,0l-0.9,1.8c4.2,1.7,8.8,2.6,13.7,2.6c5.8,0,11.1-1.2,15.8-3.5
	l3,3C50.9,69.9,43.1,72.8,34.3,72.8"/>
<path class="st0" d="M51,24c-1.5-1.5-3.3-2.9-5.2-3.9l3.7-7.3c2.6,1.5,5,3.5,6.8,5.9L51,24"/>
<path class="st1" d="M49.2,10.4L49.2,10.4L49.2,10.4z"/>
<path class="st1" d="M15.7,26.3c2.8-9.6,11.9-16.5,22.4-16.5c3.2,0,6.2,0.7,9,1.8l-3.7,7.3c-2.8-1.2-5.8-1.8-9-1.8
	C26.8,17.1,19.9,20.7,15.7,26.3 M18.2,69.1C7.3,63.7,0,52.8,0,40c0-6.8,2-13,5.5-18.1c-1.2,3.4-1.8,7-1.8,10.8
	c0,12.9,7.3,23.7,18.2,29.1L18.2,69.1"/>
<path class="st0" d="M5.5,21.9C10,8.9,22.6,0,38,0c4.9,0,9.5,0.9,13.7,2.6l-4.6,9.1l0,0L48,9.9c-4.2-1.7-8.8-2.6-13.7-2.6
	C22,7.3,11.5,13,5.5,21.9 M21.9,61.8C21.9,61.8,21.9,61.8,21.9,61.8l1-1.9c-7-4-11.7-11.4-11.7-20c0-5.2,1.7-9.9,4.6-13.6
	c-0.6,2-0.9,4.1-0.9,6.4c0,8.6,4.8,16,11.7,20L21.9,61.8"/>
<path class="st2" d="M21.9,61.8C10.9,56.4,3.6,45.5,3.6,32.7c0-3.8,0.6-7.5,1.8-10.8C11.5,13,22,7.3,34.3,7.3
	c4.9,0,9.5,0.9,13.7,2.6l-0.9,1.8c-2.8-1.2-5.8-1.8-9-1.8c-10.6,0-19.6,6.8-22.4,16.5c-2.9,3.8-4.6,8.5-4.6,13.6
	c0,8.6,4.8,16,11.7,20L21.9,61.8"/>
<path class="st1" d="M34.4,63c-3.2,0-6.3-0.7-9.2-1.9l3.7-7.3c2.8,1.2,5.8,1.8,9,1.8c12.8,0,23.3-10,23.3-22.9
	c0-5.3-1.8-10.2-4.9-14.1l2.2-2.2c-2.4-2.2-5.1-4.1-8.1-5.5l-0.9,1.9l0,0l4.6-9.2c11,5.4,18.2,16.3,18.2,29.2
	c0,13.1-7.4,23.9-18.5,29.2l-4.5-4.5C45.3,60.9,40.1,63,34.4,63"/>
<path class="st2" d="M38,65.5c-4.9,0-9.5-0.9-13.7-2.6l0.9-1.8c2.8,1.2,5.9,1.9,9.2,1.9c5.7,0,10.9-2.1,15-5.5l4.5,4.5
	C49.1,64.2,43.8,65.5,38,65.5"/>
<path class="st2" d="M56.4,18.7c-1.9-2.4-4.2-4.4-6.8-5.9l0.9-1.9c3,1.5,5.7,3.3,8.1,5.5L56.4,18.7"/>
</svg>
